<mxfile host="app.diagrams.net" modified="2023-08-24T16:18:12.025Z" agent="Mozilla/5.0 (Windows NT 10.0; Win64; x64) AppleWebKit/537.36 (KHTML, like Gecko) Chrome/116.0.0.0 Safari/537.36" etag="DQllJwMdhD6If0NpZda9" version="21.6.9" type="device">
  <diagram name="Page-1" id="I6BWOCGnMb8ykxa1LGqx">
    <mxGraphModel dx="1257" dy="626" grid="1" gridSize="10" guides="1" tooltips="1" connect="1" arrows="1" fold="1" page="1" pageScale="1" pageWidth="827" pageHeight="1169" math="0" shadow="0">
      <root>
        <mxCell id="0" />
        <mxCell id="1" parent="0" />
        <mxCell id="2cXaSmh7BXs3y_N3LDhS-4" value="" style="edgeStyle=orthogonalEdgeStyle;rounded=0;orthogonalLoop=1;jettySize=auto;html=1;" edge="1" parent="1" source="2cXaSmh7BXs3y_N3LDhS-1" target="2cXaSmh7BXs3y_N3LDhS-2">
          <mxGeometry relative="1" as="geometry" />
        </mxCell>
        <mxCell id="2cXaSmh7BXs3y_N3LDhS-1" value="Utilisatur" style="shape=umlActor;verticalLabelPosition=bottom;verticalAlign=top;html=1;outlineConnect=0;" vertex="1" parent="1">
          <mxGeometry x="220" y="110" width="30" height="60" as="geometry" />
        </mxCell>
        <mxCell id="2cXaSmh7BXs3y_N3LDhS-6" value="" style="edgeStyle=orthogonalEdgeStyle;rounded=0;orthogonalLoop=1;jettySize=auto;html=1;" edge="1" parent="1" source="2cXaSmh7BXs3y_N3LDhS-2" target="2cXaSmh7BXs3y_N3LDhS-5">
          <mxGeometry relative="1" as="geometry" />
        </mxCell>
        <mxCell id="2cXaSmh7BXs3y_N3LDhS-2" value="L&#39;utilisateur a passer a la caisse et bien remplis tous les infos nécéssaire au paiment.&lt;br&gt;Et a été validé" style="rounded=1;whiteSpace=wrap;html=1;arcSize=40;fontColor=#000000;fillColor=#ffffc0;strokeColor=#ff0000;" vertex="1" parent="1">
          <mxGeometry x="340" y="95" width="160" height="90" as="geometry" />
        </mxCell>
        <mxCell id="2cXaSmh7BXs3y_N3LDhS-8" value="" style="edgeStyle=orthogonalEdgeStyle;rounded=0;orthogonalLoop=1;jettySize=auto;html=1;" edge="1" parent="1" source="2cXaSmh7BXs3y_N3LDhS-5" target="2cXaSmh7BXs3y_N3LDhS-7">
          <mxGeometry relative="1" as="geometry" />
        </mxCell>
        <mxCell id="2cXaSmh7BXs3y_N3LDhS-5" value="Le système enregistre la commande avec les produits achetés, les informations de paiement et les détails de livraison." style="rounded=1;whiteSpace=wrap;html=1;arcSize=40;fontColor=#000000;fillColor=#ffffc0;strokeColor=#ff0000;" vertex="1" parent="1">
          <mxGeometry x="580" y="95" width="160" height="90" as="geometry" />
        </mxCell>
        <mxCell id="2cXaSmh7BXs3y_N3LDhS-10" value="" style="edgeStyle=orthogonalEdgeStyle;rounded=0;orthogonalLoop=1;jettySize=auto;html=1;" edge="1" parent="1" source="2cXaSmh7BXs3y_N3LDhS-7" target="2cXaSmh7BXs3y_N3LDhS-9">
          <mxGeometry relative="1" as="geometry" />
        </mxCell>
        <mxCell id="2cXaSmh7BXs3y_N3LDhS-7" value="Le système envoie un courriel de confirmation de la commande à l&#39;utilisateur, avec les détails de la commande et un récapitulatif des produits achetés." style="rounded=1;whiteSpace=wrap;html=1;arcSize=40;fontColor=#000000;fillColor=#ffffc0;strokeColor=#ff0000;" vertex="1" parent="1">
          <mxGeometry x="820" y="95" width="160" height="90" as="geometry" />
        </mxCell>
        <mxCell id="2cXaSmh7BXs3y_N3LDhS-9" value="La transaction est terminée, et l&#39;utilisateur reçoit un message sur le site confirmant que la commande a été passée avec succès." style="rounded=1;whiteSpace=wrap;html=1;arcSize=40;fontColor=#000000;fillColor=#ffffc0;strokeColor=#ff0000;" vertex="1" parent="1">
          <mxGeometry x="1060" y="95" width="160" height="90" as="geometry" />
        </mxCell>
      </root>
    </mxGraphModel>
  </diagram>
</mxfile>
